<mxfile host="Electron" agent="Mozilla/5.0 (Windows NT 10.0; Win64; x64) AppleWebKit/537.36 (KHTML, like Gecko) draw.io/28.2.5 Chrome/138.0.7204.251 Electron/37.6.1 Safari/537.36" version="28.2.5">
  <diagram id="C5RBs43oDa-KdzZeNtuy" name="Page-1">
    <mxGraphModel dx="2066" dy="1201" grid="1" gridSize="10" guides="1" tooltips="1" connect="1" arrows="1" fold="1" page="1" pageScale="1" pageWidth="827" pageHeight="1169" math="0" shadow="0">
      <root>
        <mxCell id="WIyWlLk6GJQsqaUBKTNV-0" />
        <mxCell id="WIyWlLk6GJQsqaUBKTNV-1" parent="WIyWlLk6GJQsqaUBKTNV-0" />
        <mxCell id="Au0-ImdtquO8-Za8MS4R-2" value="" style="edgeStyle=orthogonalEdgeStyle;rounded=0;orthogonalLoop=1;jettySize=auto;html=1;" edge="1" parent="WIyWlLk6GJQsqaUBKTNV-1" source="Au0-ImdtquO8-Za8MS4R-0" target="Au0-ImdtquO8-Za8MS4R-1">
          <mxGeometry relative="1" as="geometry" />
        </mxCell>
        <mxCell id="Au0-ImdtquO8-Za8MS4R-0" value="algus" style="ellipse;whiteSpace=wrap;html=1;" vertex="1" parent="WIyWlLk6GJQsqaUBKTNV-1">
          <mxGeometry x="340" y="10" width="120" height="80" as="geometry" />
        </mxCell>
        <mxCell id="Au0-ImdtquO8-Za8MS4R-4" value="" style="edgeStyle=orthogonalEdgeStyle;rounded=0;orthogonalLoop=1;jettySize=auto;html=1;" edge="1" parent="WIyWlLk6GJQsqaUBKTNV-1" source="Au0-ImdtquO8-Za8MS4R-1" target="Au0-ImdtquO8-Za8MS4R-3">
          <mxGeometry relative="1" as="geometry" />
        </mxCell>
        <mxCell id="Au0-ImdtquO8-Za8MS4R-1" value="Kuva kasutajale tekst&lt;div&gt;&quot;Tere külaline, palun registreeri ennast! Mis on sinu nimi?&quot;&lt;/div&gt;" style="shape=parallelogram;perimeter=parallelogramPerimeter;whiteSpace=wrap;html=1;fixedSize=1;" vertex="1" parent="WIyWlLk6GJQsqaUBKTNV-1">
          <mxGeometry x="310" y="120" width="180" height="60" as="geometry" />
        </mxCell>
        <mxCell id="Au0-ImdtquO8-Za8MS4R-6" value="" style="edgeStyle=orthogonalEdgeStyle;rounded=0;orthogonalLoop=1;jettySize=auto;html=1;" edge="1" parent="WIyWlLk6GJQsqaUBKTNV-1" source="Au0-ImdtquO8-Za8MS4R-3" target="Au0-ImdtquO8-Za8MS4R-5">
          <mxGeometry relative="1" as="geometry" />
        </mxCell>
        <mxCell id="Au0-ImdtquO8-Za8MS4R-7" value="EI" style="edgeLabel;html=1;align=center;verticalAlign=middle;resizable=0;points=[];" vertex="1" connectable="0" parent="Au0-ImdtquO8-Za8MS4R-6">
          <mxGeometry x="-0.181" y="1" relative="1" as="geometry">
            <mxPoint as="offset" />
          </mxGeometry>
        </mxCell>
        <mxCell id="Au0-ImdtquO8-Za8MS4R-3" value="Kas kasutaja on sisestanud enda nime?" style="rhombus;whiteSpace=wrap;html=1;" vertex="1" parent="WIyWlLk6GJQsqaUBKTNV-1">
          <mxGeometry x="340" y="230" width="120" height="110" as="geometry" />
        </mxCell>
        <mxCell id="Au0-ImdtquO8-Za8MS4R-9" value="" style="edgeStyle=orthogonalEdgeStyle;rounded=0;orthogonalLoop=1;jettySize=auto;html=1;" edge="1" parent="WIyWlLk6GJQsqaUBKTNV-1" source="Au0-ImdtquO8-Za8MS4R-5" target="Au0-ImdtquO8-Za8MS4R-8">
          <mxGeometry relative="1" as="geometry" />
        </mxCell>
        <mxCell id="Au0-ImdtquO8-Za8MS4R-5" value="Kuva kasutajale tekst &quot;Ok, kuna sa oma nime ei kirjutanud, annan sulle ise nime -nimetuKasutaja&quot;" style="shape=parallelogram;perimeter=parallelogramPerimeter;whiteSpace=wrap;html=1;fixedSize=1;" vertex="1" parent="WIyWlLk6GJQsqaUBKTNV-1">
          <mxGeometry x="245" y="390" width="310" height="70" as="geometry" />
        </mxCell>
        <mxCell id="Au0-ImdtquO8-Za8MS4R-11" value="" style="edgeStyle=orthogonalEdgeStyle;rounded=0;orthogonalLoop=1;jettySize=auto;html=1;" edge="1" parent="WIyWlLk6GJQsqaUBKTNV-1" source="Au0-ImdtquO8-Za8MS4R-8" target="Au0-ImdtquO8-Za8MS4R-10">
          <mxGeometry relative="1" as="geometry" />
        </mxCell>
        <mxCell id="Au0-ImdtquO8-Za8MS4R-8" value="Kuva kasutajale tekst &quot;Palun sisesta ka oma kasutaja jaoks parooli&quot;" style="shape=parallelogram;perimeter=parallelogramPerimeter;whiteSpace=wrap;html=1;fixedSize=1;" vertex="1" parent="WIyWlLk6GJQsqaUBKTNV-1">
          <mxGeometry x="310" y="545" width="180" height="60" as="geometry" />
        </mxCell>
        <mxCell id="Au0-ImdtquO8-Za8MS4R-13" value="" style="edgeStyle=orthogonalEdgeStyle;rounded=0;orthogonalLoop=1;jettySize=auto;html=1;" edge="1" parent="WIyWlLk6GJQsqaUBKTNV-1" source="Au0-ImdtquO8-Za8MS4R-10" target="Au0-ImdtquO8-Za8MS4R-12">
          <mxGeometry relative="1" as="geometry" />
        </mxCell>
        <mxCell id="Au0-ImdtquO8-Za8MS4R-14" value="1234" style="edgeLabel;html=1;align=center;verticalAlign=middle;resizable=0;points=[];" vertex="1" connectable="0" parent="Au0-ImdtquO8-Za8MS4R-13">
          <mxGeometry x="-0.3778" y="1" relative="1" as="geometry">
            <mxPoint as="offset" />
          </mxGeometry>
        </mxCell>
        <mxCell id="Au0-ImdtquO8-Za8MS4R-19" style="edgeStyle=orthogonalEdgeStyle;rounded=0;orthogonalLoop=1;jettySize=auto;html=1;entryX=1;entryY=0.5;entryDx=0;entryDy=0;" edge="1" parent="WIyWlLk6GJQsqaUBKTNV-1" source="Au0-ImdtquO8-Za8MS4R-10" target="Au0-ImdtquO8-Za8MS4R-8">
          <mxGeometry relative="1" as="geometry">
            <Array as="points">
              <mxPoint x="510" y="720" />
              <mxPoint x="510" y="575" />
            </Array>
          </mxGeometry>
        </mxCell>
        <mxCell id="Au0-ImdtquO8-Za8MS4R-20" value="EI" style="edgeLabel;html=1;align=center;verticalAlign=middle;resizable=0;points=[];" vertex="1" connectable="0" parent="Au0-ImdtquO8-Za8MS4R-19">
          <mxGeometry x="-0.0077" relative="1" as="geometry">
            <mxPoint as="offset" />
          </mxGeometry>
        </mxCell>
        <mxCell id="Au0-ImdtquO8-Za8MS4R-10" value="Kas kasutaja sisestas parooli?" style="rhombus;whiteSpace=wrap;html=1;" vertex="1" parent="WIyWlLk6GJQsqaUBKTNV-1">
          <mxGeometry x="345" y="680" width="110" height="80" as="geometry" />
        </mxCell>
        <mxCell id="Au0-ImdtquO8-Za8MS4R-16" value="" style="edgeStyle=orthogonalEdgeStyle;rounded=0;orthogonalLoop=1;jettySize=auto;html=1;" edge="1" parent="WIyWlLk6GJQsqaUBKTNV-1" source="Au0-ImdtquO8-Za8MS4R-12" target="Au0-ImdtquO8-Za8MS4R-15">
          <mxGeometry relative="1" as="geometry" />
        </mxCell>
        <mxCell id="Au0-ImdtquO8-Za8MS4R-12" value="Tuva kasutajale tekst &quot;Seda ei saa paroolina kasutada, määrasin sulle ise parooli &quot;A43Ü&quot;" style="shape=parallelogram;perimeter=parallelogramPerimeter;whiteSpace=wrap;html=1;fixedSize=1;" vertex="1" parent="WIyWlLk6GJQsqaUBKTNV-1">
          <mxGeometry x="310" y="800" width="180" height="80" as="geometry" />
        </mxCell>
        <mxCell id="Au0-ImdtquO8-Za8MS4R-18" value="" style="edgeStyle=orthogonalEdgeStyle;rounded=0;orthogonalLoop=1;jettySize=auto;html=1;" edge="1" parent="WIyWlLk6GJQsqaUBKTNV-1" source="Au0-ImdtquO8-Za8MS4R-15" target="Au0-ImdtquO8-Za8MS4R-17">
          <mxGeometry relative="1" as="geometry" />
        </mxCell>
        <mxCell id="Au0-ImdtquO8-Za8MS4R-15" value="Kuva tekst &quot;Aitäh {kasutajaNimi}, olete registreeritud&quot;" style="shape=parallelogram;perimeter=parallelogramPerimeter;whiteSpace=wrap;html=1;fixedSize=1;" vertex="1" parent="WIyWlLk6GJQsqaUBKTNV-1">
          <mxGeometry x="325" y="910" width="150" height="60" as="geometry" />
        </mxCell>
        <mxCell id="Au0-ImdtquO8-Za8MS4R-17" value="Lõpp" style="ellipse;whiteSpace=wrap;html=1;" vertex="1" parent="WIyWlLk6GJQsqaUBKTNV-1">
          <mxGeometry x="330" y="1000" width="140" height="80" as="geometry" />
        </mxCell>
      </root>
    </mxGraphModel>
  </diagram>
</mxfile>
